<svg width="14" height="14" viewBox="0 0 14 14" fill="none" xmlns="http://www.w3.org/2000/svg">
<path d="M6.99996 12.8334C5.45286 12.8334 3.96913 12.2188 2.87517 11.1248C1.78121 10.0308 1.16663 8.54712 1.16663 7.00002C1.16663 5.45292 1.78121 3.96919 2.87517 2.87523C3.96913 1.78127 5.45286 1.16669 6.99996 1.16669C8.54706 1.16669 10.0308 1.71981 11.1247 2.70438C12.2187 3.68894 12.8333 5.0243 12.8333 6.41669C12.8333 7.19024 12.526 7.9321 11.979 8.47908C11.432 9.02606 10.6902 9.33335 9.91663 9.33335H8.60413C8.41455 9.33335 8.22871 9.38615 8.06744 9.48581C7.90618 9.58548 7.77585 9.72809 7.69107 9.89766C7.60628 10.0672 7.57039 10.257 7.58742 10.4459C7.60444 10.6347 7.67371 10.815 7.78746 10.9667L7.96246 11.2C8.07621 11.3517 8.14548 11.532 8.1625 11.7208C8.17953 11.9097 8.14364 12.0995 8.05885 12.2691C7.97407 12.4386 7.84374 12.5812 7.68248 12.6809C7.52121 12.7806 7.33537 12.8334 7.14579 12.8334H6.99996Z" stroke="#57B7F2" stroke-width="1.16667" stroke-linecap="round" stroke-linejoin="round"/>
<path d="M7.87504 4.08333C8.03612 4.08333 8.16671 3.95275 8.16671 3.79167C8.16671 3.63058 8.03612 3.5 7.87504 3.5C7.71396 3.5 7.58337 3.63058 7.58337 3.79167C7.58337 3.95275 7.71396 4.08333 7.87504 4.08333Z" fill="#57B7F2" stroke="#57B7F2" stroke-width="1.16667" stroke-linecap="round" stroke-linejoin="round"/>
<path d="M10.2083 6.41665C10.3694 6.41665 10.5 6.28606 10.5 6.12498C10.5 5.9639 10.3694 5.83331 10.2083 5.83331C10.0472 5.83331 9.91663 5.9639 9.91663 6.12498C9.91663 6.28606 10.0472 6.41665 10.2083 6.41665Z" fill="#57B7F2" stroke="#57B7F2" stroke-width="1.16667" stroke-linecap="round" stroke-linejoin="round"/>
<path d="M3.79167 7.58333C3.95275 7.58333 4.08333 7.45275 4.08333 7.29167C4.08333 7.13058 3.95275 7 3.79167 7C3.63058 7 3.5 7.13058 3.5 7.29167C3.5 7.45275 3.63058 7.58333 3.79167 7.58333Z" fill="#57B7F2" stroke="#57B7F2" stroke-width="1.16667" stroke-linecap="round" stroke-linejoin="round"/>
<path d="M4.95829 4.66665C5.11938 4.66665 5.24996 4.53606 5.24996 4.37498C5.24996 4.2139 5.11938 4.08331 4.95829 4.08331C4.79721 4.08331 4.66663 4.2139 4.66663 4.37498C4.66663 4.53606 4.79721 4.66665 4.95829 4.66665Z" fill="#57B7F2" stroke="#57B7F2" stroke-width="1.16667" stroke-linecap="round" stroke-linejoin="round"/>
</svg>
