<svg width="14" height="14" viewBox="0 0 14 14" fill="none" xmlns="http://www.w3.org/2000/svg">
<g clip-path="url(#clip0_1_1109)">
<path d="M4.66671 12.8333C4.98887 12.8333 5.25004 12.5721 5.25004 12.25C5.25004 11.9278 4.98887 11.6666 4.66671 11.6666C4.34454 11.6666 4.08337 11.9278 4.08337 12.25C4.08337 12.5721 4.34454 12.8333 4.66671 12.8333Z" stroke="white" stroke-width="1.16667" stroke-linecap="round" stroke-linejoin="round"/>
<path d="M11.0833 12.8333C11.4055 12.8333 11.6667 12.5721 11.6667 12.25C11.6667 11.9278 11.4055 11.6666 11.0833 11.6666C10.7612 11.6666 10.5 11.9278 10.5 12.25C10.5 12.5721 10.7612 12.8333 11.0833 12.8333Z" stroke="white" stroke-width="1.16667" stroke-linecap="round" stroke-linejoin="round"/>
<path d="M1.1958 1.1958H2.36247L3.91413 8.4408C3.97105 8.70614 4.11869 8.94333 4.33163 9.11155C4.54457 9.27977 4.8095 9.3685 5.0808 9.36247H10.7858C11.0513 9.36204 11.3087 9.27105 11.5156 9.10454C11.7224 8.93802 11.8662 8.70594 11.9233 8.44663L12.8858 4.11247H2.98663" stroke="white" stroke-width="1.16667" stroke-linecap="round" stroke-linejoin="round"/>
</g>
<defs>
<clipPath id="clip0_1_1109">
<rect width="14" height="14" fill="white"/>
</clipPath>
</defs>
</svg>
