<svg width="18" height="18" viewBox="0 0 18 18" fill="none" xmlns="http://www.w3.org/2000/svg">
<path d="M14.5834 14.5833C14.9701 14.5833 15.3411 14.4297 15.6146 14.1562C15.8881 13.8827 16.0417 13.5118 16.0417 13.125V5.83333C16.0417 5.44656 15.8881 5.07563 15.6146 4.80214C15.3411 4.52865 14.9701 4.375 14.5834 4.375H8.82296C8.57906 4.37739 8.33846 4.31857 8.12318 4.20392C7.90789 4.08927 7.7248 3.92246 7.59067 3.71875L7.00004 2.84375C6.86725 2.64211 6.68648 2.4766 6.47395 2.36206C6.26141 2.24752 6.02377 2.18754 5.78233 2.1875H2.91671C2.52993 2.1875 2.159 2.34115 1.88551 2.61464C1.61202 2.88813 1.45837 3.25906 1.45837 3.64583V13.125C1.45837 13.5118 1.61202 13.8827 1.88551 14.1562C2.159 14.4297 2.52993 14.5833 2.91671 14.5833H14.5834Z" stroke="#0554F2" stroke-width="1.45833" stroke-linecap="round" stroke-linejoin="round"/>
</svg>
