<svg width="14" height="14" viewBox="0 0 14 14" fill="none" xmlns="http://www.w3.org/2000/svg">
<g clip-path="url(#clip0_1_1117)">
<path d="M9.33329 12.25V11.0833C9.33329 10.4645 9.08746 9.871 8.64988 9.43342C8.21229 8.99583 7.6188 8.75 6.99996 8.75H3.49996C2.88112 8.75 2.28763 8.99583 1.85004 9.43342C1.41246 9.871 1.16663 10.4645 1.16663 11.0833V12.25" stroke="#1154D9" stroke-width="1.16667" stroke-linecap="round" stroke-linejoin="round"/>
<path d="M9.33337 1.82471C9.83373 1.95442 10.2769 2.24661 10.5932 2.65541C10.9095 3.06421 11.0812 3.56648 11.0812 4.08337C11.0812 4.60027 10.9095 5.10254 10.5932 5.51134C10.2769 5.92014 9.83373 6.21232 9.33337 6.34204" stroke="#1154D9" stroke-width="1.16667" stroke-linecap="round" stroke-linejoin="round"/>
<path d="M12.8334 12.25V11.0833C12.833 10.5663 12.6609 10.0641 12.3442 9.65549C12.0274 9.24689 11.5839 8.95505 11.0834 8.82581" stroke="#1154D9" stroke-width="1.16667" stroke-linecap="round" stroke-linejoin="round"/>
<path d="M5.24996 6.41667C6.53862 6.41667 7.58329 5.372 7.58329 4.08333C7.58329 2.79467 6.53862 1.75 5.24996 1.75C3.96129 1.75 2.91663 2.79467 2.91663 4.08333C2.91663 5.372 3.96129 6.41667 5.24996 6.41667Z" stroke="#1154D9" stroke-width="1.16667" stroke-linecap="round" stroke-linejoin="round"/>
</g>
<defs>
<clipPath id="clip0_1_1117">
<rect width="14" height="14" fill="white"/>
</clipPath>
</defs>
</svg>
