<svg width="18" height="18" viewBox="0 0 18 18" fill="none" xmlns="http://www.w3.org/2000/svg">
<path d="M13.8542 8.02081H3.64583C2.84042 8.02081 2.1875 8.67373 2.1875 9.47915V14.5833C2.1875 15.3887 2.84042 16.0416 3.64583 16.0416H13.8542C14.6596 16.0416 15.3125 15.3887 15.3125 14.5833V9.47915C15.3125 8.67373 14.6596 8.02081 13.8542 8.02081Z" stroke="#57B7F2" stroke-width="1.45833" stroke-linecap="round" stroke-linejoin="round"/>
<path d="M5.10425 8.02081V5.10415C5.10425 4.13721 5.48836 3.20988 6.17209 2.52615C6.85581 1.84243 7.78315 1.45831 8.75008 1.45831C9.71702 1.45831 10.6443 1.84243 11.3281 2.52615C12.0118 3.20988 12.3959 4.13721 12.3959 5.10415V8.02081" stroke="#57B7F2" stroke-width="1.45833" stroke-linecap="round" stroke-linejoin="round"/>
</svg>
