<svg width="21" height="21" viewBox="0 0 21 21" fill="none" xmlns="http://www.w3.org/2000/svg">
<path d="M10.5 2.625V7.875" stroke="#0554F2" stroke-width="1.75" stroke-linecap="round" stroke-linejoin="round"/>
<path d="M14.665 2.62504C14.9911 2.62277 15.3114 2.71169 15.5897 2.88176C15.868 3.05183 16.0932 3.29628 16.24 3.58754L18.1913 7.50667C18.312 7.74884 18.3748 8.01571 18.375 8.28629V16.625C18.375 17.0892 18.1906 17.5343 17.8624 17.8625C17.5342 18.1907 17.0891 18.375 16.625 18.375H4.375C3.91087 18.375 3.46575 18.1907 3.13756 17.8625C2.80937 17.5343 2.625 17.0892 2.625 16.625V8.28804C2.62502 8.0165 2.68823 7.74869 2.80962 7.50579L4.76875 3.58754C4.91484 3.29762 5.13871 3.05404 5.41531 2.88407C5.69191 2.71409 6.01035 2.6244 6.335 2.62504H14.665Z" stroke="#0554F2" stroke-width="1.75" stroke-linecap="round" stroke-linejoin="round"/>
<path d="M2.67224 7.88635H18.3286" stroke="#0554F2" stroke-width="1.75" stroke-linecap="round" stroke-linejoin="round"/>
</svg>
