<svg width="18" height="18" viewBox="0 0 18 18" fill="none" xmlns="http://www.w3.org/2000/svg">
<path d="M11.6667 15.3125V13.8542C11.6667 13.0806 11.3594 12.3388 10.8124 11.7918C10.2654 11.2448 9.52356 10.9375 8.75001 10.9375H4.37501C3.60146 10.9375 2.8596 11.2448 2.31262 11.7918C1.76563 12.3388 1.45834 13.0806 1.45834 13.8542V15.3125" stroke="white" stroke-width="1.45833" stroke-linecap="round" stroke-linejoin="round"/>
<path d="M11.6667 2.28082C12.2921 2.44297 12.846 2.8082 13.2414 3.3192C13.6368 3.8302 13.8514 4.45803 13.8514 5.10416C13.8514 5.75028 13.6368 6.37811 13.2414 6.88911C12.846 7.40011 12.2921 7.76534 11.6667 7.92749" stroke="white" stroke-width="1.45833" stroke-linecap="round" stroke-linejoin="round"/>
<path d="M16.0417 15.3125V13.8542C16.0412 13.2079 15.8261 12.5801 15.4302 12.0694C15.0342 11.5586 14.4799 11.1938 13.8542 11.0323" stroke="white" stroke-width="1.45833" stroke-linecap="round" stroke-linejoin="round"/>
<path d="M6.56251 8.02083C8.17334 8.02083 9.47918 6.715 9.47918 5.10417C9.47918 3.49334 8.17334 2.1875 6.56251 2.1875C4.95168 2.1875 3.64584 3.49334 3.64584 5.10417C3.64584 6.715 4.95168 8.02083 6.56251 8.02083Z" stroke="white" stroke-width="1.45833" stroke-linecap="round" stroke-linejoin="round"/>
</svg>
