<svg width="14" height="14" viewBox="0 0 14 14" fill="none" xmlns="http://www.w3.org/2000/svg">
<path d="M8.06866 9.66469C8.18913 9.72002 8.32486 9.73266 8.45348 9.70053C8.5821 9.6684 8.69594 9.59342 8.77624 9.48794L8.98332 9.21669C9.092 9.07179 9.23291 8.95419 9.39491 8.87319C9.55691 8.79219 9.73554 8.75002 9.91666 8.75002H11.6667C11.9761 8.75002 12.2728 8.87294 12.4916 9.09173C12.7104 9.31052 12.8333 9.60727 12.8333 9.91669V11.6667C12.8333 11.9761 12.7104 12.2729 12.4916 12.4916C12.2728 12.7104 11.9761 12.8334 11.6667 12.8334C8.88188 12.8334 6.21117 11.7271 4.24204 9.75798C2.2729 7.78884 1.16666 5.11813 1.16666 2.33335C1.16666 2.02393 1.28957 1.72719 1.50837 1.5084C1.72716 1.2896 2.0239 1.16669 2.33332 1.16669H4.08332C4.39274 1.16669 4.68949 1.2896 4.90828 1.5084C5.12707 1.72719 5.24999 2.02393 5.24999 2.33335V4.08335C5.24999 4.26447 5.20782 4.44311 5.12682 4.6051C5.04582 4.7671 4.92822 4.90802 4.78332 5.01669L4.51032 5.22144C4.40323 5.30321 4.32775 5.41953 4.2967 5.55064C4.26565 5.68175 4.28095 5.81957 4.33999 5.94069C5.13722 7.55994 6.4484 8.86949 8.06866 9.66469Z" stroke="#4A5565" stroke-width="1.16667" stroke-linecap="round" stroke-linejoin="round"/>
</svg>
