<svg width="18" height="18" viewBox="0 0 18 18" fill="none" xmlns="http://www.w3.org/2000/svg">
<path d="M11.6667 8.02083L13.125 9.47917L16.0417 6.5625" stroke="#00C950" stroke-width="1.45833" stroke-linecap="round" stroke-linejoin="round"/>
<path d="M11.6666 15.3125V13.8542C11.6666 13.0806 11.3594 12.3388 10.8124 11.7918C10.2654 11.2448 9.52353 10.9375 8.74998 10.9375H4.37498C3.60143 10.9375 2.85957 11.2448 2.31258 11.7918C1.7656 12.3388 1.45831 13.0806 1.45831 13.8542V15.3125" stroke="#00C950" stroke-width="1.45833" stroke-linecap="round" stroke-linejoin="round"/>
<path d="M6.56248 8.02083C8.17331 8.02083 9.47915 6.715 9.47915 5.10417C9.47915 3.49334 8.17331 2.1875 6.56248 2.1875C4.95165 2.1875 3.64581 3.49334 3.64581 5.10417C3.64581 6.715 4.95165 8.02083 6.56248 8.02083Z" stroke="#00C950" stroke-width="1.45833" stroke-linecap="round" stroke-linejoin="round"/>
</svg>
